<svg class="reminder-button__icon" viewBox="0 0 100 100" fill="none" xmlns="http://www.w3.org/2000/svg">
    <path d="M42.875 24.7143C42.875 22.6683 43.6783 20.7062 45.1083 19.2595C46.5383 17.8128 48.4777 17 50.5 17C52.5223 17 54.4617 17.8128 55.8917 19.2595C57.3217 20.7062 58.125 22.6683 58.125 24.7143C62.5033 26.8088 66.2357 30.0693 68.9222 34.1462C71.6087 38.2231 73.1479 42.9627 73.375 47.8571V59.4286C73.6619 61.8266 74.5013 64.1229 75.8257 66.1328C77.1501 68.1426 78.9224 69.8097 81 71H20C22.0776 69.8097 23.8499 68.1426 25.1743 66.1328C26.4987 64.1229 27.3381 61.8266 27.625 59.4286V47.8571C27.8521 42.9627 29.3913 38.2231 32.0778 34.1462C34.7643 30.0693 38.4967 26.8088 42.875 24.7143Z" stroke="black" stroke-width="7" stroke-linecap="round" stroke-linejoin="round"/>
    <path d="M42 72V74.75C42 76.938 42.8955 79.0365 44.4896 80.5836C46.0837 82.1308 48.2457 83 50.5 83C52.7543 83 54.9163 82.1308 56.5104 80.5836C58.1045 79.0365 59 76.938 59 74.75V72" stroke="black" stroke-width="7" stroke-linecap="round" stroke-linejoin="round"/>
</svg>
