<svg width="457" height="199" viewBox="0 0 457 199" fill="none" xmlns="http://www.w3.org/2000/svg">
<g clip-path="url(#clip0_2_22)">
<path d="M139.2 149.91C139.2 155.82 143.99 160.6 149.89 160.6V173.24C149.89 186.97 138.76 198.1 125.03 198.1H24.86C11.13 198.1 0 186.97 0 173.24V30.61C0 16.89 11.13 5.76001 24.86 5.76001H94.93V46.23C94.93 54.23 101.42 60.72 109.42 60.72H149.89V139.23C143.99 139.23 139.2 144.01 139.2 149.91V149.91Z" fill="#1C75BC"/>
<path d="M144.54 144.15C144.54 150.06 149.33 154.84 155.23 154.84V167.48C155.23 181.21 144.1 192.34 130.37 192.34H30.2C16.47 192.34 5.33997 181.21 5.33997 167.48V24.85C5.34997 11.13 16.48 0 30.2 0H100.27V40.47C100.27 48.47 106.76 54.96 114.76 54.96H155.23V133.47C149.33 133.47 144.54 138.25 144.54 144.15Z" fill="#00AEEF"/>
<path d="M155.23 54.96H114.76C106.76 54.96 100.27 48.47 100.27 40.47V0L155.23 54.96Z" fill="#78D2F7"/>
<path d="M269.23 56.43H242.27C238.33 56.43 235.13 59.63 235.13 63.57V155.1C235.13 159.04 238.33 162.24 242.27 162.24H269.22C295.44 162.24 316.7 140.98 316.7 114.76V103.9C316.7 77.68 295.45 56.43 269.23 56.43V56.43ZM295.71 113.71C295.71 128.9 283.39 141.22 268.2 141.22H263.28C259.33 141.22 256.12 138.02 256.12 134.06V84.6C256.12 80.65 259.32 77.44 263.28 77.44H268.21C283.4 77.44 295.71 89.75 295.71 104.94V113.7V113.71Z" fill="white"/>
<path d="M353.32 114.97C336.76 112.05 322.59 126.24 325.54 142.79C327.27 152.47 334.99 160.17 344.68 161.86C361.2 164.75 375.32 150.6 372.42 134.08C370.72 124.39 363.01 116.68 353.32 114.97V114.97ZM346.16 146.64C343.64 145.84 341.62 143.84 340.79 141.33C338.49 134.35 344.84 127.94 351.84 130.19C354.36 131 356.38 133.02 357.19 135.54C359.42 142.5 353.12 148.84 346.16 146.64V146.64Z" fill="white"/>
<path d="M100.27 67.35C100.27 72.14 96.39 76.03 91.6 76.03C86.81 76.03 82.93 72.14 82.93 67.35C82.93 62.56 86.81 58.68 91.6 58.68C96.39 58.68 100.27 62.57 100.27 67.35Z" fill="#00AEEF"/>
<path d="M155.23 133.47V154.84C149.33 154.84 144.54 150.06 144.54 144.15C144.54 138.24 149.33 133.47 155.23 133.47Z" fill="white"/>
<path d="M406.51 64.67C406.51 60.5223 403.148 57.16 399 57.16C394.852 57.16 391.49 60.5223 391.49 64.67V153.99C391.49 158.138 394.852 161.5 399 161.5C403.148 161.5 406.51 158.138 406.51 153.99V64.67Z" fill="white"/>
<path d="M430.97 154.73C430.97 158.878 434.332 162.24 438.48 162.24C442.628 162.24 445.99 158.878 445.99 154.73V65.41C445.99 61.2623 442.628 57.9 438.48 57.9C434.332 57.9 430.97 61.2623 430.97 65.41V154.73Z" fill="white"/>
<path d="M456.18 94.57V93.28C456.18 88.8065 452.554 85.18 448.08 85.18H428.89C424.416 85.18 420.79 88.8065 420.79 93.28V94.57C420.79 99.0435 424.416 102.67 428.89 102.67H448.08C452.554 102.67 456.18 99.0435 456.18 94.57Z" fill="white"/>
<path d="M155.12 125.75H141.25V162.57H155.12V125.75Z" fill="#00AEEF"/>
<path d="M417.02 154.15V152.86C417.02 148.387 413.394 144.76 408.92 144.76H389.73C385.256 144.76 381.63 148.387 381.63 152.86V154.15C381.63 158.624 385.256 162.25 389.73 162.25H408.92C413.394 162.25 417.02 158.624 417.02 154.15Z" fill="white"/>
<path d="M417.03 65.09V63.8C417.03 59.3265 413.404 55.7 408.93 55.7H389.74C385.266 55.7 381.64 59.3265 381.64 63.8V65.09C381.64 69.5635 385.266 73.19 389.74 73.19H408.93C413.404 73.19 417.03 69.5635 417.03 65.09Z" fill="white"/>
<g clip-path="url(#clip1_2_22)">
<path d="M97.5055 81.1664L89.5649 89.107L110.893 110.435L118.834 102.495C122.935 98.393 122.935 91.7484 118.834 87.6469L112.37 81.1664C108.268 77.0648 101.623 77.0648 97.5219 81.1664H97.5055ZM85.8571 92.8149L47.6141 131.074C45.9078 132.78 44.661 134.897 43.9719 137.21L38.1641 156.947C37.7539 158.341 38.1313 159.834 39.1485 160.852C40.1656 161.869 41.6586 162.246 43.0367 161.852L62.7735 156.045C65.0867 155.355 67.2031 154.109 68.9094 152.402L107.185 114.143L85.8571 92.8149Z" fill="white"/>
</g>
</g>
<defs>
<clipPath id="clip0_2_22">
<rect width="456.18" height="198.1" fill="white"/>
</clipPath>
<clipPath id="clip1_2_22">
<rect width="84" height="84" fill="white" transform="translate(38 78)"/>
</clipPath>
</defs>
</svg>
