<svg width="100" height="100" viewBox="0 0 100 100" fill="none" xmlns="http://www.w3.org/2000/svg">
<path d="M57 17V31.4C57 32.3548 57.4004 33.2705 58.113 33.9456C58.8256 34.6207 59.7922 35 60.8 35H76" stroke="black" stroke-width="7" stroke-linecap="round" stroke-linejoin="round"/>
<path d="M68.5714 83H31.4286C29.4584 83 27.5689 82.2274 26.1758 80.8521C24.7827 79.4768 24 77.6116 24 75.6667V24.3333C24 22.3884 24.7827 20.5232 26.1758 19.1479C27.5689 17.7726 29.4584 17 31.4286 17H57.4286L76 35.3333V75.6667C76 77.6116 75.2173 79.4768 73.8242 80.8521C72.4311 82.2274 70.5416 83 68.5714 83Z" stroke="black" stroke-width="7" stroke-linecap="round" stroke-linejoin="round"/>
</svg>
